<svg width="31" height="30" viewBox="0 0 31 30" fill="none" xmlns="http://www.w3.org/2000/svg">
<circle cx="15.5" cy="15" r="15" fill="#79B2F2"/>
<path d="M20.2746 7.44955C20.2746 7.33172 20.2278 7.21871 20.1444 7.13539C20.0611 7.05206 19.9481 7.00525 19.8303 7.00525H17.6088C16.4901 6.94953 15.3949 7.33883 14.5624 8.08808C13.7299 8.83733 13.2278 9.88564 13.1658 11.0039V13.4032H10.9443C10.8265 13.4032 10.7135 13.45 10.6301 13.5333C10.5468 13.6166 10.5 13.7296 10.5 13.8475V16.1578C10.5 16.2756 10.5468 16.3886 10.6301 16.472C10.7135 16.5553 10.8265 16.6021 10.9443 16.6021H13.1658V22.5557C13.1658 22.6735 13.2126 22.7865 13.2959 22.8699C13.3792 22.9532 13.4923 23 13.6101 23H16.2759C16.3937 23 16.5067 22.9532 16.59 22.8699C16.6734 22.7865 16.7202 22.6735 16.7202 22.5557V16.6021H19.0483C19.1471 16.6035 19.2436 16.572 19.3224 16.5124C19.4013 16.4529 19.458 16.3687 19.4837 16.2733L20.1235 13.963C20.1412 13.8973 20.1436 13.8285 20.1305 13.7618C20.1173 13.6951 20.0891 13.6323 20.0479 13.5782C20.0067 13.5241 19.9536 13.4802 19.8928 13.4499C19.832 13.4195 19.765 13.4035 19.697 13.4032H16.7202V11.0039C16.7423 10.784 16.8456 10.5802 17.0099 10.4323C17.1742 10.2844 17.3877 10.2031 17.6088 10.2042H19.8303C19.9481 10.2042 20.0611 10.1574 20.1444 10.0741C20.2278 9.99075 20.2746 9.87774 20.2746 9.7599V7.44955Z" fill="white"/>
</svg>
