<svg width="30" height="30" viewBox="0 0 30 30" fill="none" xmlns="http://www.w3.org/2000/svg">
<circle cx="15" cy="15" r="15" fill="#79B2F2"/>
<mask id="path-2-inside-1_42_681" fill="white">
<path d="M6.04389 7L12.9935 16.2923L6 23.8473H7.57395L13.6967 17.2328L18.6438 23.8473H24L16.6594 14.0323L23.1689 7H21.5949L15.9561 13.0918L11.4001 7H6.04389ZM8.3585 8.15938H10.8192L21.685 22.6877H19.2244L8.3585 8.15938Z"/>
</mask>
<path d="M6.04389 7L12.9935 16.2923L6 23.8473H7.57395L13.6967 17.2328L18.6438 23.8473H24L16.6594 14.0323L23.1689 7H21.5949L15.9561 13.0918L11.4001 7H6.04389ZM8.3585 8.15938H10.8192L21.685 22.6877H19.2244L8.3585 8.15938Z" fill="#79B2F2"/>
<path d="M6.04389 7V5H2.05063L4.44227 8.19784L6.04389 7ZM12.9935 16.2923L14.4612 17.6509L15.5928 16.4284L14.5951 15.0944L12.9935 16.2923ZM6 23.8473L4.5323 22.4887L1.4233 25.8473H6V23.8473ZM7.57395 23.8473V25.8473H8.44796L9.04167 25.2059L7.57395 23.8473ZM13.6967 17.2328L15.2983 16.0349L13.8602 14.112L12.229 15.8742L13.6967 17.2328ZM18.6438 23.8473L17.0422 25.0451L17.6421 25.8473H18.6438V23.8473ZM24 23.8473V25.8473H27.9933L25.6016 22.6494L24 23.8473ZM16.6594 14.0323L15.1917 12.6737L14.0601 13.8962L15.0578 15.2302L16.6594 14.0323ZM23.1689 7L24.6366 8.3586L27.7455 5H23.1689V7ZM21.5949 7V5H20.7209L20.1272 5.64142L21.5949 7ZM15.9561 13.0918L14.3545 14.2897L15.7927 16.2127L17.4239 14.4504L15.9561 13.0918ZM11.4001 7L13.0017 5.80217L12.4018 5H11.4001V7ZM8.3585 8.15938V6.15938H4.36519L6.75689 9.35723L8.3585 8.15938ZM10.8192 8.15938L12.4208 6.96152L11.8208 6.15938H10.8192V8.15938ZM21.685 22.6877V24.6877H25.6783L23.2866 21.4899L21.685 22.6877ZM19.2244 22.6877L17.6228 23.8856L18.2227 24.6877H19.2244V22.6877ZM4.44227 8.19784L11.3919 17.4901L14.5951 15.0944L7.64551 5.80216L4.44227 8.19784ZM11.5258 14.9337L4.5323 22.4887L7.4677 25.2059L14.4612 17.6509L11.5258 14.9337ZM6 25.8473H7.57395V21.8473H6V25.8473ZM9.04167 25.2059L15.1645 18.5914L12.229 15.8742L6.10624 22.4887L9.04167 25.2059ZM12.0951 18.4306L17.0422 25.0451L20.2454 22.6494L15.2983 16.0349L12.0951 18.4306ZM18.6438 25.8473H24V21.8473H18.6438V25.8473ZM25.6016 22.6494L18.261 12.8345L15.0578 15.2302L22.3984 25.0451L25.6016 22.6494ZM18.1271 15.3909L24.6366 8.3586L21.7011 5.6414L15.1917 12.6737L18.1271 15.3909ZM23.1689 5H21.5949V9H23.1689V5ZM20.1272 5.64142L14.4884 11.7333L17.4239 14.4504L23.0627 8.35858L20.1272 5.64142ZM17.5578 11.894L13.0017 5.80217L9.79849 8.19783L14.3545 14.2897L17.5578 11.894ZM11.4001 5H6.04389V9H11.4001V5ZM8.3585 10.1594H10.8192V6.15938H8.3585V10.1594ZM9.21755 9.35723L20.0834 23.8856L23.2866 21.4899L12.4208 6.96152L9.21755 9.35723ZM21.685 20.6877H19.2244V24.6877H21.685V20.6877ZM20.826 21.4899L9.96011 6.96152L6.75689 9.35723L17.6228 23.8856L20.826 21.4899Z" fill="white" mask="url(#path-2-inside-1_42_681)"/>
</svg>
