<svg width="30" height="30" viewBox="0 0 30 30" fill="none" xmlns="http://www.w3.org/2000/svg">
<circle cx="15" cy="15" r="15" fill="#79B2F2"/>
<path fill-rule="evenodd" clip-rule="evenodd" d="M23 23H19.8V17.4008C19.8 15.8648 19.1224 15.0078 17.9072 15.0078C16.5848 15.0078 15.8 15.9008 15.8 17.4008V23H12.6V12.6H15.8V13.7695C15.8 13.7695 16.804 12.0078 19.0664 12.0078C21.3296 12.0078 23 13.3889 23 16.2465V23ZM8.9536 10.9367C7.8744 10.9367 7 10.0552 7 8.96797C7 7.88157 7.8744 7 8.9536 7C10.032 7 10.9064 7.88157 10.9064 8.96797C10.9072 10.0552 10.032 10.9367 8.9536 10.9367ZM7 23H11V12.6H7V23Z" fill="white"/>
</svg>
