<svg width="21" height="20" viewBox="0 0 21 20" fill="none" xmlns="http://www.w3.org/2000/svg">
<path d="M10.5008 0.625C10.271 0.625056 10.0506 0.716382 9.88808 0.878902C9.72556 1.04142 9.63424 1.26183 9.63418 1.49167V11.3788L6.3198 8.06438C6.23932 7.9839 6.14376 7.92007 6.0386 7.87652C5.93345 7.83297 5.82074 7.81055 5.70692 7.81057C5.47705 7.81059 5.2566 7.90192 5.09407 8.06448C4.93155 8.22703 4.84025 8.4475 4.84027 8.67737C4.84029 8.90723 4.93163 9.12768 5.09418 9.29021L9.88793 14.0833C10.0505 14.2458 10.271 14.3371 10.5008 14.3371C10.7307 14.3371 10.9512 14.2458 11.1138 14.0833L15.9075 9.28938C16.0701 9.12684 16.1614 8.9064 16.1614 8.67653C16.1614 8.44667 16.0701 8.2262 15.9077 8.06364C15.7451 7.90109 15.5247 7.80975 15.2948 7.80973C15.0649 7.80972 14.8444 7.90101 14.6819 8.06354L11.3675 11.3788V1.49167C11.3675 1.26183 11.2761 1.04142 11.1136 0.878902C10.9511 0.716382 10.7307 0.625056 10.5008 0.625Z" fill="#0077FF"/>
<path d="M1.99167 12.0844C1.76181 12.0844 1.54137 12.1758 1.37884 12.3382C1.21631 12.5008 1.125 12.7212 1.125 12.9511V15.8069C1.12605 16.7529 1.50231 17.6599 2.17123 18.3288C2.84017 18.9978 3.74712 19.374 4.69312 19.375H16.3069C17.2529 19.374 18.1599 18.9978 18.8288 18.3288C19.4977 17.6599 19.874 16.7529 19.875 15.8069V12.9511C19.875 12.8372 19.8526 12.7246 19.809 12.6194C19.7654 12.5142 19.7017 12.4188 19.6211 12.3382C19.5407 12.2578 19.4451 12.194 19.34 12.1504C19.2349 12.1069 19.1221 12.0844 19.0083 12.0844C18.8946 12.0844 18.7818 12.1069 18.6767 12.1504C18.5716 12.194 18.476 12.2578 18.3956 12.3382C18.315 12.4188 18.2512 12.5142 18.2077 12.6194C18.1641 12.7246 18.1417 12.8372 18.1417 12.9511V15.8069C18.1411 16.2933 17.9477 16.7598 17.6037 17.1037C17.2597 17.4477 16.7933 17.6411 16.3069 17.6417H4.69312C4.20668 17.6411 3.74031 17.4477 3.39634 17.1037C3.05237 16.7598 2.85889 16.2933 2.85833 15.8069V12.9511C2.85836 12.8372 2.83597 12.7246 2.79242 12.6194C2.74888 12.5142 2.68503 12.4187 2.60456 12.3382C2.52407 12.2577 2.42852 12.1939 2.32336 12.1503C2.2182 12.1068 2.10549 12.0844 1.99167 12.0844Z" fill="#0077FF"/>
</svg>
